<svg xmlns="http://www.w3.org/2000/svg" viewBox="1150 125 25 25" fill="none">
  <path d="M1153.59 141.414C1153.21 141.789 1153 142.298 1153 142.828V145C1153 145.265 1153.11 145.52 1153.29 145.707C1153.48 145.895 1153.73 146 1154 146H1157C1157.27 146 1157.52 145.895 1157.71 145.707C1157.89 145.52 1158 145.265 1158 145V144C1158 143.735 1158.11 143.481 1158.29 143.293C1158.48 143.106 1158.73 143 1159 143H1160C1160.27 143 1160.52 142.895 1160.71 142.707C1160.89 142.52 1161 142.265 1161 142V141C1161 140.735 1161.11 140.481 1161.29 140.293C1161.48 140.106 1161.73 140 1162 140H1162.17C1162.7 140 1163.21 139.789 1163.59 139.414L1164.4 138.6C1165.79 139.084 1167.3 139.082 1168.69 138.595C1170.08 138.107 1171.26 137.163 1172.04 135.916C1172.83 134.67 1173.16 133.194 1173 131.732C1172.83 130.269 1172.18 128.906 1171.13 127.866C1170.09 126.825 1168.73 126.168 1167.27 126.003C1165.81 125.838 1164.33 126.174 1163.08 126.956C1161.84 127.738 1160.89 128.92 1160.41 130.309C1159.92 131.697 1159.92 133.21 1160.4 134.6L1153.59 141.414Z" stroke="#1E40AF" stroke-width="2" stroke-linecap="round" stroke-linejoin="round"/>
  <path d="M1167.5 132C1167.78 132 1168 131.776 1168 131.5C1168 131.224 1167.78 131 1167.5 131C1167.22 131 1167 131.224 1167 131.5C1167 131.776 1167.22 132 1167.5 132Z" fill="#1E40AF" stroke="#1E40AF" stroke-width="2" stroke-linecap="round" stroke-linejoin="round"/>
</svg>

