<svg xmlns="http://www.w3.org/2000/svg" viewBox="468 125 25 22" width="100" height="100" fill="none">
  <path
    d="M486 145C486 142.878 485.157 140.843 483.657 139.343C482.157 137.843 480.122 137 478 137C475.878 137 473.843 137.843 472.343 139.343C470.843 140.843 470 142.878 470 145"
    stroke="#1E40AF"
    stroke-width="2"
    stroke-linecap="round"
    stroke-linejoin="round"
  />
  <path
    d="M478 137C480.761 137 483 134.761 483 132C483 129.239 480.761 127 478 127C475.239 127 473 129.239 473 132C473 134.761 475.239 137 478 137Z"
    stroke="#1E40AF"
    stroke-width="2"
    stroke-linecap="round"
    stroke-linejoin="round"
  />
  <path
    d="M490 144C490 140.63 488 137.5 486 136C486.657 135.507 487.183 134.859 487.53 134.114C487.878 133.37 488.036 132.551 487.992 131.73C487.947 130.909 487.701 130.112 487.275 129.409C486.849 128.707 486.257 128.119 485.55 127.7"
    stroke="#1E40AF"
    stroke-width="2"
    stroke-linecap="round"
    stroke-linejoin="round"
  />
</svg>

