<svg xmlns="http://www.w3.org/2000/svg" viewBox="150 120 30 30" width="100" height="100" fill="none">
  <path
    d="M168 145V137C168 136.735 167.895 136.48 167.707 136.293C167.52 136.105 167.265 136 167 136H163C162.735 136 162.48 136.105 162.293 136.293C162.105 136.48 162 136.735 162 137V145"
    stroke="white" 
    stroke-width="2"
    stroke-linecap="round"
    stroke-linejoin="round"
  />
  <path
    d="M156 134C156 133.709 156.063 133.422 156.186 133.158C156.308 132.894 156.487 132.66 156.709 132.472L163.709 126.473C164.07 126.168 164.527 126 165 126C165.473 126 165.93 126.168 166.291 126.473L173.291 132.472C173.513 132.66 173.692 132.894 173.814 133.158C173.937 133.422 174 133.709 174 134V143C174 143.53 173.789 144.039 173.414 144.414C173.039 144.789 172.53 145 172 145H158C157.47 145 156.961 144.789 156.586 144.414C156.211 144.039 156 143.53 156 143V134Z"
    stroke="white" 
    stroke-width="2"
    stroke-linecap="round"
    stroke-linejoin="round"
  />
</svg>
