<svg xmlns="http://www.w3.org/2000/svg" viewBox="970 125 40 20" width="100" height="100" fill="none">
  <path d="M981 137V126L989 130L981 134" stroke="white" stroke-width="2" stroke-linecap="round" stroke-linejoin="round"/>
  <path d="M989.561 134.222C990.093 135.862 990.143 137.621 989.704 139.288C989.266 140.956 988.357 142.463 987.087 143.629C985.817 144.795 984.239 145.572 982.54 145.867C980.841 146.162 979.093 145.963 977.504 145.293C975.915 144.623 974.552 143.511 973.577 142.089C972.602 140.667 972.056 138.995 972.004 137.271C971.952 135.548 972.396 133.845 973.284 132.367C974.171 130.889 975.465 129.696 977.011 128.932" stroke="white" stroke-width="2" stroke-linecap="round" stroke-linejoin="round"/>
  <path d="M977.001 133.997C976.5 134.664 976.174 135.446 976.052 136.271C975.931 137.097 976.018 137.939 976.305 138.723C976.592 139.506 977.071 140.205 977.698 140.755C978.324 141.306 979.079 141.692 979.892 141.876C980.706 142.061 981.553 142.039 982.356 141.813C983.159 141.586 983.892 141.163 984.49 140.58C985.087 139.998 985.529 139.275 985.776 138.478C986.022 137.681 986.065 136.835 985.901 136.017" stroke="white" stroke-width="2" stroke-linecap="round" stroke-linejoin="round"/>
</svg>
