<svg xmlns="http://www.w3.org/2000/svg" viewBox="785 126 20 20" width="100" height="100" fill="none">
  <path
    d="M789 146V128C789 127.47 789.211 126.961 789.586 126.586C789.961 126.211 790.47 126 791 126H799C799.53 126 800.039 126.211 800.414 126.586C800.789 126.961 801 127.47 801 128V146M789 146H801M789 146H787C786.47 146 785.961 145.789 785.586 145.414C785.211 145.039 785 144.53 785 144V138C785 137.47 785.211 136.961 785.586 136.586C785.961 136.211 786.47 136 787 136H789M801 146H803C803.53 146 804.039 145.789 804.414 145.414C804.789 145.039 805 144.53 805 144V135C805 134.47 804.789 133.961 804.414 133.586C804.039 133.211 803.53 133 803 133H801M793 130H797M793 134H797M793 138H797M793 142H797"
    stroke="#1E40AF"
    stroke-width="2"
    stroke-linecap="round"
    stroke-linejoin="round"
  />
</svg>
