<svg xmlns="http://www.w3.org/2000/svg" viewBox="608 124 20 24" width="100" height="100" fill="none">
  <path
    d="M616 142L619 139L616 136M620 126V130C620 130.53 620.211 131.039 620.586 131.414C620.961 131.789 621.47 132 622 132H626"
    stroke="#1E40AF"
    stroke-width="2"
    stroke-linecap="round"
    stroke-linejoin="round"
  />
  <path
    d="M610 135V128C610 127.47 610.211 126.961 610.586 126.586C610.961 126.211 611.47 126 612 126H621L626 131V144C626 144.53 625.789 145.039 625.414 145.414C625.039 145.789 624.53 146 624 146H612C611.47 146 610.961 145.789 610.586 145.414C610.211 145.039 610 144.53 610 144V141C610 140.47 610.211 139.961 610.586 139.586C610.961 139.211 611.47 139 612 139H619"
    stroke="#1E40AF"
    stroke-width="2"
    stroke-linecap="round"
    stroke-linejoin="round"
  />
</svg>
